<?xml version="1.0" encoding="UTF-8"?>
<svg width="169px" height="38px" viewBox="0 0 169 38" version="1.1" xmlns="http://www.w3.org/2000/svg" xmlns:xlink="http://www.w3.org/1999/xlink">
    <!-- Generator: Sketch 58 (84663) - https://sketch.com -->
    <title>peak_logo_light</title>
    <desc>Created with Sketch.</desc>
    <g id="Page-1" stroke="none" stroke-width="1" fill="none" fill-rule="evenodd">
        <g id="peak_logo_light" fill="#FFFFFF">
            <g id="Logo-SVG">
                <path d="M38,0 L0,0 L0,38 L38,38 L38,0 Z M19,10.6874955 L5.02941176,29.0588235 L16.2058824,21.7941176 L22.9117647,24.5882353 L31.4687567,20.1874955 L19,10.6874955 Z" id="Shape"></path>
            </g>
            <path d="M46.2109,27 L50.0781,27 L50.0781,22.0312 L52.7031,22.0312 C56.3672,22.0312 58.6562,19.8594 58.6562,16.5391 C58.6562,13.25 56.4141,11 52.8203,11 L46.2109,11 L46.2109,27 Z M50.0781,18.9844 L50.0781,14.1172 L51.9844,14.1172 C53.7188,14.1172 54.6484,15.0547 54.6484,16.5391 C54.6484,18.0156 53.7188,18.9844 51.9844,18.9844 L50.0781,18.9844 Z M65.9355,27.2266 C69.084,27.2266 71.1543,25.7031 71.5918,23.3437 L68.084,23.2422 C67.7871,24.0391 67.0059,24.4687 66.0059,24.4687 C64.5371,24.4687 63.6309,23.4922 63.6309,22.0234 L63.6309,21.9219 L71.6309,21.9219 L71.6309,20.9687 C71.6309,17.0156 69.2246,14.8438 65.8184,14.8438 C62.1934,14.8438 59.8652,17.3281 59.8652,21.0469 C59.8652,24.8906 62.1621,27.2266 65.9355,27.2266 Z M63.6309,19.7031 C63.6855,18.5078 64.6309,17.6016 65.8965,17.6016 C67.1543,17.6016 68.0605,18.4766 68.0762,19.7031 L63.6309,19.7031 Z M76.9648,27.2031 C78.6367,27.2031 79.793,26.5547 80.4492,25.3281 L80.543,25.3281 L80.543,27 L84.1367,27 L84.1367,18.8437 C84.1367,16.3047 81.8789,14.8438 78.8242,14.8438 C75.5977,14.8438 73.7695,16.4687 73.4648,18.6562 L76.9883,18.7812 C77.1523,18.0156 77.7852,17.5469 78.793,17.5469 C79.7305,17.5469 80.3242,18 80.3242,18.8047 L80.3242,18.8437 C80.3242,19.5781 79.5273,19.7344 77.4805,19.9141 C75.0508,20.1172 73.0195,21.0156 73.0195,23.6719 C73.0195,26.0469 74.668,27.2031 76.9648,27.2031 Z M78.1445,24.7031 C77.2617,24.7031 76.6367,24.2812 76.6367,23.4844 C76.6367,22.7109 77.2461,22.2422 78.332,22.0781 C79.043,21.9766 79.918,21.8203 80.3477,21.5937 L80.3477,22.7344 C80.3477,23.9062 79.3633,24.7031 78.1445,24.7031 Z M86.4727,27 L90.293,27 L90.293,23.3984 L91.0664,22.4609 L93.9258,27 L98.3398,27 L93.9102,20.2266 L98.168,15 L93.8398,15 L90.4648,19.2969 L90.293,19.2969 L90.293,11 L86.4727,11 L86.4727,27 Z M99.5352,27 L103.402,27 L103.402,22.0312 L106.027,22.0312 C109.691,22.0312 111.98,19.8594 111.98,16.5391 C111.98,13.25 109.738,11 106.145,11 L99.5352,11 L99.5352,27 Z M103.402,18.9844 L103.402,14.1172 L105.309,14.1172 C107.043,14.1172 107.973,15.0547 107.973,16.5391 C107.973,18.0156 107.043,18.9844 105.309,18.9844 L103.402,18.9844 Z M113.887,27 L117.707,27 L117.707,20.4844 C117.707,19.0547 118.723,18.0937 120.09,18.0937 C120.543,18.0937 121.223,18.1719 121.59,18.2969 L121.59,14.9766 C121.27,14.8906 120.871,14.8359 120.52,14.8359 C119.207,14.8359 118.16,15.6016 117.723,17.1875 L117.598,17.1875 L117.598,15 L113.887,15 L113.887,27 Z M128.125,27.2266 C131.898,27.2266 134.188,24.7344 134.188,21.0391 C134.188,17.3359 131.898,14.8438 128.125,14.8438 C124.352,14.8438 122.063,17.3359 122.063,21.0391 C122.063,24.7344 124.352,27.2266 128.125,27.2266 Z M128.148,24.3437 C126.734,24.3437 125.953,23 125.953,21.0156 C125.953,19.0234 126.734,17.6719 128.148,17.6719 C129.516,17.6719 130.297,19.0234 130.297,21.0156 C130.297,23 129.516,24.3437 128.148,24.3437 Z M136.145,27 L139.965,27 L139.965,19.8984 C139.965,18.7109 140.66,17.9531 141.66,17.9531 C142.652,17.9531 143.309,18.6484 143.309,19.7578 L143.309,27 L146.98,27 L146.98,19.8359 C146.98,18.6875 147.613,17.9531 148.668,17.9531 C149.637,17.9531 150.324,18.6016 150.324,19.7969 L150.324,27 L154.145,27 L154.145,18.9219 C154.145,16.3828 152.582,14.8438 150.316,14.8438 C148.543,14.8438 147.145,15.7734 146.699,17.2031 L146.574,17.2031 C146.254,15.7656 144.965,14.8438 143.301,14.8438 C141.66,14.8438 140.41,15.7422 139.91,17.2031 L139.777,17.2031 L139.777,15 L136.145,15 L136.145,27 Z M162.113,27.2266 C165.887,27.2266 168.176,24.7344 168.176,21.0391 C168.176,17.3359 165.887,14.8438 162.113,14.8438 C158.34,14.8438 156.051,17.3359 156.051,21.0391 C156.051,24.7344 158.34,27.2266 162.113,27.2266 Z M162.137,24.3437 C160.723,24.3437 159.941,23 159.941,21.0156 C159.941,19.0234 160.723,17.6719 162.137,17.6719 C163.504,17.6719 164.285,19.0234 164.285,21.0156 C164.285,23 163.504,24.3437 162.137,24.3437 Z" id="Shape" fill-rule="nonzero"></path>
        </g>
    </g>
</svg>